<svg xmlns="http://www.w3.org/2000/svg" xmlns:xlink="http://www.w3.org/1999/xlink" width="1024px" height="400px"><style type="text/css">
path { fill: none; stroke: rgb(51,51,51); }
path.series { stroke: #6b63ff; }
rect.background { fill: none; stroke: none; }

text {
	stroke-width: 0;
	stroke: none;
	fill: rgba(51,51,51,1.0);
	font-size: 12.8px;
	font-family: 'Roboto Medium', sans-serif;
}

@media (prefers-color-scheme: dark) {
	path { stroke: rgb(230, 237, 243); }
	path.series { stroke: #6b63ff; }
	text { fill: rgb(230, 237, 243); }
}
</style><rect rx="8" x="0" y="0" width="1024px" height="400px" class="background" /><path stroke-width="2" class="series" d="M 58 346 L 172 324 L 185 302 L 398 280 L 415 258 L 475 236 L 512 214 L 619 192 L 643 170 L 697 148 L 722 126 L 755 104 L 767 82 L 887 60 L 888 38 L 952 16" /><path stroke-width="2" d="M 952 346 L 952.000000 15.000000" /><path stroke-width="2" d="M 952 346 L 957 346" /><text x="962" y="352">1</text><path stroke-width="2" d="M 952 308 L 957 308" /><text x="962" y="314">3</text><path stroke-width="2" d="M 952 271 L 957 271" /><text x="962" y="277">4</text><path stroke-width="2" d="M 952 236 L 957 236" /><text x="962" y="242">6</text><path stroke-width="2" d="M 952 198 L 957 198" /><text x="962" y="204">8</text><path stroke-width="2" d="M 952 161 L 957 161" /><text x="962" y="167">9</text><path stroke-width="2" d="M 952 126 L 957 126" /><text y="132" x="962">11</text><path stroke-width="2" d="M 952 88 L 957 88" /><text x="962" y="94">13</text><path stroke-width="2" d="M 952 51 L 957 51" /><text x="962" y="57">14</text><path stroke-width="2" d="M 952 16 L 957 16" /><text y="22" x="962">16</text><text x="987" y="175" transform="rotate(90.00,987,175)">Stargazers</text><path stroke-width="2" d="M 57.000000 346.000000 L 952 346" /><path d="M 58 346 L 58 351" stroke-width="2" /><text y="368" x="25">2024-11-05</text><path stroke-width="2" d="M 158 346 L 158 351" /><text x="125" y="368">2025-01-01</text><path d="M 257 346 L 257 351" stroke-width="2" /><text x="224" y="368">2025-02-27</text><path stroke-width="2" d="M 357 346 L 357 351" /><text x="324" y="368">2025-04-25</text><path d="M 456 346 L 456 351" stroke-width="2" /><text x="423" y="368">2025-06-21</text><path stroke-width="2" d="M 555 346 L 555 351" /><text x="522" y="368">2025-08-17</text><path stroke-width="2" d="M 655 346 L 655 351" /><text x="622" y="368">2025-10-13</text><path stroke-width="2" d="M 754 346 L 754 351" /><text x="721" y="368">2025-12-09</text><path stroke-width="2" d="M 853 346 L 853 351" /><text x="820" y="368">2026-02-04</text><path stroke-width="2" d="M 952 346 L 952 351" /><text x="919" y="368">2026-04-02</text><text x="490" y="390">Time</text></svg>