<svg width="1024px" height="400px" xmlns="http://www.w3.org/2000/svg" xmlns:xlink="http://www.w3.org/1999/xlink"><style type="text/css">
path { fill: none; stroke: rgb(51,51,51); }
path.series { stroke: #6b63ff; }
rect.background { fill: none; stroke: none; }

text {
	stroke-width: 0;
	stroke: none;
	fill: rgba(51,51,51,1.0);
	font-size: 12.8px;
	font-family: 'Roboto Medium', sans-serif;
}

@media (prefers-color-scheme: dark) {
	path { stroke: rgb(230, 237, 243); }
	path.series { stroke: #6b63ff; }
	text { fill: rgb(230, 237, 243); }
}
</style><rect x="0" y="0" width="1024px" height="400px" class="background" rx="8" /><rect height="400px" class="background" rx="8" x="0" y="0" width="1024px"></rect><path stroke-width="2" class="series" d="M 58 346 L 181 322 L 194 298 L 425 275 L 443 251 L 508 228 L 547 204 L 662 181 L 688 157 L 747 133 L 773 110 L 810 86 L 822 63 L 952 39 L 952 16" /><path stroke-width="2" class="series" d="M 58 346 L 181 322 L 194 298 L 425 275 L 443 251 L 508 228 L 547 204 L 662 181 L 688 157 L 747 133 L 773 110 L 810 86 L 822 63 L 952 39 L 952 16"></path><path stroke-width="2" d="M 952 346 L 952.000000 15.000000" /><path stroke-width="2" d="M 952 346 L 952.000000 15.000000"></path><path stroke-width="2" d="M 952 346 L 957 346" /><path stroke-width="2" d="M 952 346 L 957 346"></path><text xmlns="http://www.w3.org/2000/svg" x="962" y="352">1</text><path stroke-width="2" d="M 952 308 L 957 308" /><path stroke-width="2" d="M 952 308 L 957 308"></path><text xmlns="http://www.w3.org/2000/svg" x="962" y="314">3</text><path stroke-width="2" d="M 952 270 L 957 270" /><path stroke-width="2" d="M 952 270 L 957 270"></path><text xmlns="http://www.w3.org/2000/svg" x="962" y="276">4</text><path d="M 952 235 L 957 235" stroke-width="2" /><path stroke-width="2" d="M 952 235 L 957 235"></path><text xmlns="http://www.w3.org/2000/svg" x="962" y="241">6</text><path d="M 952 197 L 957 197" stroke-width="2" /><path stroke-width="2" d="M 952 197 L 957 197"></path><text xmlns="http://www.w3.org/2000/svg" x="962" y="203">7</text><path stroke-width="2" d="M 952 162 L 957 162" /><path stroke-width="2" d="M 952 162 L 957 162"></path><text xmlns="http://www.w3.org/2000/svg" x="962" y="168">9</text><path stroke-width="2" d="M 952 124 L 957 124" /><path stroke-width="2" d="M 952 124 L 957 124"></path><text xmlns="http://www.w3.org/2000/svg" x="962" y="130">10</text><path stroke-width="2" d="M 952 89 L 957 89" /><path stroke-width="2" d="M 952 89 L 957 89"></path><text xmlns="http://www.w3.org/2000/svg" x="962" y="95">12</text><path stroke-width="2" d="M 952 51 L 957 51" /><path stroke-width="2" d="M 952 51 L 957 51"></path><text y="57" xmlns="http://www.w3.org/2000/svg" x="962">14</text><path stroke-width="2" d="M 952 16 L 957 16" /><path stroke-width="2" d="M 952 16 L 957 16"></path><text y="22" xmlns="http://www.w3.org/2000/svg" x="962">15</text><text transform="rotate(90.00,987,175)" xmlns="http://www.w3.org/2000/svg" x="987" y="175">Stargazers</text><path d="M 57.000000 346.000000 L 952 346" stroke-width="2" /><path stroke-width="2" d="M 57.000000 346.000000 L 952 346"></path><path stroke-width="2" d="M 58 346 L 58 351" /><path stroke-width="2" d="M 58 346 L 58 351"></path><text xmlns="http://www.w3.org/2000/svg" x="25" y="368">2024-11-05</text><path stroke-width="2" d="M 158 346 L 158 351" /><path stroke-width="2" d="M 158 346 L 158 351"></path><text x="125" y="368" xmlns="http://www.w3.org/2000/svg">2024-12-28</text><path stroke-width="2" d="M 257 346 L 257 351" /><path stroke-width="2" d="M 257 346 L 257 351"></path><text xmlns="http://www.w3.org/2000/svg" x="224" y="368">2025-02-19</text><path stroke-width="2" d="M 357 346 L 357 351" /><path stroke-width="2" d="M 357 346 L 357 351"></path><text xmlns="http://www.w3.org/2000/svg" x="324" y="368">2025-04-13</text><path stroke-width="2" d="M 456 346 L 456 351" /><path stroke-width="2" d="M 456 346 L 456 351"></path><text y="368" xmlns="http://www.w3.org/2000/svg" x="423">2025-06-04</text><path stroke-width="2" d="M 555 346 L 555 351" /><path d="M 555 346 L 555 351" stroke-width="2"></path><text y="368" xmlns="http://www.w3.org/2000/svg" x="522">2025-07-27</text><path stroke-width="2" d="M 655 346 L 655 351" /><path stroke-width="2" d="M 655 346 L 655 351"></path><text xmlns="http://www.w3.org/2000/svg" x="622" y="368">2025-09-18</text><path stroke-width="2" d="M 754 346 L 754 351" /><path stroke-width="2" d="M 754 346 L 754 351"></path><text y="368" xmlns="http://www.w3.org/2000/svg" x="721">2025-11-10</text><path d="M 853 346 L 853 351" stroke-width="2" /><path stroke-width="2" d="M 853 346 L 853 351"></path><text xmlns="http://www.w3.org/2000/svg" x="820" y="368">2026-01-02</text><path stroke-width="2" d="M 952 346 L 952 351" /><path stroke-width="2" d="M 952 346 L 952 351"></path><text xmlns="http://www.w3.org/2000/svg" x="919" y="368">2026-02-24</text><text xmlns="http://www.w3.org/2000/svg" x="490" y="390">Time</text></svg>